<?xml version="1.0" encoding="UTF-8"?>

  <svg id="_레이어_1" data-name="레이어 1" xmlns="http://www.w3.org/2000/svg" xmlns:xlink="http://www.w3.org/1999/xlink"
    viewBox="0 0 1920 2260">


  
    <defs>
      <style>
        .cls-1 {
          stroke: #fff;
          stroke-linecap: round;
          stroke-linejoin: round;
          stroke-width: 2.5px;
        }

        .cls-1,
        .cls-2 {
          fill: #fff;
        }

        .cls-3 {
          fill: #4483c1;
        }

        .cls-3,
        .cls-4,
        .cls-5,
        .cls-2 {
          stroke-width: 0px;
        }

        .cls-4 {
          fill: url(#_무제_그라디언트_141);
        }

        .cls-5 {
          fill: #cce5ff;
        }
      </style>
      <linearGradient id="_무제_그라디언트_141" data-name="무제 그라디언트 141" x1="1052.48" y1="1776.78" x2="1719.52" y2="1776.78"
        gradientUnits="userSpaceOnUse">
        <stop offset="0" stop-color="#cce5ff" />
        <stop offset=".3" stop-color="#cfe6ff" />
        <stop offset=".56" stop-color="#daecff" />
        <stop offset=".81" stop-color="#ecf5ff" />
        <stop offset="1" stop-color="#fff" />
      </linearGradient>
    </defs>
    <rect class="cls-4" x="1052.48" y="1648.72" width="667.05" height="256.11" rx="128.06" ry="128.06" />
    <g>
      <path class="cls-3"
        d="M1351.62,1762.57h2.11v25.98h-15.68c-.19,0-.36-.07-.5-.21-.14-.14-.21-.3-.21-.5v-25.31h2.11v10.3h12.16v-10.27ZM1351.62,1786.64v-11.87h-12.16v11.87h12.16ZM1359.52,1789.58v-27.84h2.11v27.84h-2.11Z" />
      <path class="cls-3"
        d="M1384.29,1763.18v1.95h-17.79v-1.95h7.84v-3.1h2.11v3.1h7.84ZM1383.11,1773.23c.4,1.3.61,2.77.61,4.42s-.2,3.11-.61,4.42c-.41,1.26-1,2.33-1.79,3.2-.75.85-1.64,1.49-2.69,1.92-1,.4-2.09.61-3.25.61s-2.23-.2-3.22-.61c-1.05-.43-1.94-1.07-2.69-1.92-.79-.88-1.39-1.94-1.79-3.2-.43-1.3-.64-2.77-.64-4.42s.21-3.12.64-4.42c.4-1.26,1-2.33,1.79-3.2.75-.85,1.64-1.49,2.69-1.92.98-.41,2.06-.61,3.23-.61s2.25.2,3.23.61c1.04.43,1.94,1.07,2.69,1.92.79.88,1.39,1.94,1.79,3.2ZM1370.69,1783.69c1.13,1.45,2.7,2.18,4.7,2.18s3.57-.73,4.71-2.18c1.13-1.45,1.7-3.47,1.7-6.05s-.57-4.6-1.7-6.05c-1.13-1.45-2.7-2.18-4.71-2.18s-3.57.73-4.7,2.18c-1.13,1.45-1.7,3.47-1.7,6.05s.57,4.6,1.7,6.05ZM1391.49,1773.29h4.67v1.92h-4.67v14.46h-2.11v-27.84h2.11v11.46Z" />
      <path class="cls-3"
        d="M1402.28,1775.95c-1.75-1.28-2.62-3.11-2.62-5.49s.87-4.21,2.62-5.49c1.54-1.13,3.52-1.7,5.95-1.7s4.42.57,5.95,1.7c1.75,1.3,2.62,3.14,2.62,5.5s-.88,4.19-2.62,5.47c-1.54,1.13-3.52,1.7-5.95,1.7s-4.42-.57-5.95-1.7ZM1403.43,1766.54c-1.24.9-1.86,2.2-1.86,3.92s.62,3.04,1.86,3.95c1.17.88,2.77,1.31,4.78,1.31s3.62-.44,4.82-1.31c1.22-.92,1.82-2.23,1.82-3.95s-.61-3.02-1.82-3.92c-1.2-.87-2.8-1.31-4.82-1.31s-3.61.44-4.78,1.31ZM1402.79,1789.58c-.19,0-.36-.06-.5-.19s-.21-.29-.21-.48v-9.6h2.11v8.35h20.77v1.92h-22.18ZM1422.37,1782.51v-20.77h2.11v20.77h-2.11Z" />
      <path class="cls-3"
        d="M1428.9,1788.56v-1.92h27.42v1.92h-27.42ZM1430.92,1762.57h23.39v1.92h-21.28v11.94h21.28v1.92h-22.69c-.19,0-.36-.06-.5-.19s-.21-.29-.21-.48v-15.1Z" />
      <path class="cls-3"
        d="M1471.14,1786.64h14.91v1.92h-16.32c-.19,0-.36-.07-.5-.21-.14-.14-.21-.3-.21-.5v-25.28h15.46v1.95h-13.34v22.11ZM1493.31,1773.2h4.67v1.95h-4.67v14.43h-2.11v-27.84h2.11v11.46Z" />
      <path class="cls-3"
        d="M1499.59,1777.33v-1.95h27.42v1.95h-12.67v5.6h-2.11v-5.6h-12.64ZM1502.21,1789.55c-.19,0-.36-.07-.5-.21-.14-.14-.21-.3-.21-.5v-9.57h2.11v8.35h21.44v1.92h-22.85ZM1521.89,1763.66c2.05.81,3.07,2.18,3.07,4.1s-1.02,3.29-3.07,4.1c-1.79.73-4.66,1.09-8.59,1.09s-6.8-.36-8.59-1.09c-2.03-.81-3.04-2.18-3.04-4.1s1.01-3.28,3.04-4.1c1.81-.72,4.68-1.09,8.61-1.09s6.78.36,8.58,1.09ZM1521.15,1770.06c.75-.3,1.24-.64,1.49-1.02.24-.38.37-.81.37-1.28s-.12-.9-.37-1.28c-.25-.38-.74-.73-1.49-1.02-1.56-.64-4.18-.96-7.86-.96s-6.3.32-7.86.96c-.75.3-1.24.64-1.49,1.02-.25.38-.37.81-.37,1.28s.12.9.37,1.28c.24.38.74.73,1.49,1.02,1.56.64,4.18.96,7.86.96s6.3-.32,7.86-.96Z" />
      <path class="cls-3"
        d="M1531.65,1762.57h23.39v9.34h-21.28v5.47h21.28v1.95h-10.62v7.3h12.64v1.92h-27.42v-1.92h12.67v-7.3h-9.95c-.19,0-.36-.07-.5-.21-.14-.14-.21-.3-.21-.5v-8.64h21.28v-5.47h-21.28v-1.95Z" />
      <path class="cls-3"
        d="M1559.68,1788.56v-1.92h27.42v1.92h-27.42ZM1561.7,1762.57h23.39v1.92h-21.28v11.94h21.28v1.92h-22.69c-.19,0-.36-.06-.5-.19s-.21-.29-.21-.48v-15.1Z" />
      <path class="cls-3"
        d="M1602.75,1774.48h14.72v1.95h-16.13c-.19,0-.36-.07-.5-.21s-.21-.3-.21-.5v-7.55h14.08v-3.68h-14.08v-1.95h16.19v7.58h-14.08v4.35ZM1619.81,1778.99c1.47,0,2.72.52,3.76,1.55,1.03,1.04,1.55,2.28,1.55,3.74s-.52,2.71-1.55,3.76c-1.04,1.04-2.29,1.57-3.76,1.57h-13.41c-1.45,0-2.7-.52-3.74-1.55-1.05-1.04-1.57-2.29-1.57-3.76s.52-2.72,1.57-3.76c1.04-1.03,2.29-1.55,3.74-1.55h13.41ZM1622.16,1786.67c.65-.66.98-1.45.98-2.37s-.33-1.71-.98-2.37c-.65-.66-1.44-.99-2.35-.99h-13.44c-.92,0-1.71.33-2.37.98-.66.65-.99,1.45-.99,2.38s.33,1.73.99,2.38c.66.65,1.45.98,2.37.98h13.44c.92,0,1.7-.33,2.35-.99ZM1622.63,1777.07v-15.33h2.11v15.33h-2.11Z" />
      <path class="cls-3"
        d="M1629.76,1788.56v-1.92h27.42v1.92h-27.42ZM1654.43,1762.57c.19,0,.36.06.5.19s.21.29.21.48v16.1h-2.11v-6.75h-21.02v-1.92h21.02v-6.18h-21.28v-1.92h22.69Z" />
    </g>
    <path class="cls-1"
      d="M1206.32,1832.79h18.28v-30.47h12.19v30.47h18.28l-24.38,24.38-24.37-24.38ZM1276.27,1754.13c-1.29-24.08-21.16-43.22-45.58-43.22s-44.28,19.14-45.58,43.22c-15.66,2.82-27.55,16.49-27.55,32.95,0,18.51,15.01,33.52,33.52,33.52h21.33v-12.19h-21.33c-11.76,0-21.33-9.57-21.33-21.33,0-17.04,15.11-23.36,27.01-22.67-1.02-25.7,13.45-41.32,33.92-41.32s35.9,17.04,33.92,41.32c10.63-.28,27.01,4.58,27.01,22.67,0,11.76-9.57,21.33-21.33,21.33h-21.33v12.19h21.33c18.51,0,33.52-15.01,33.52-33.52,0-16.47-11.89-30.13-27.55-32.95Z" />
    <g>
      <path class="cls-5"
        d="M1128.14,1698.35c-.15,0-.3-.02-.45-.07-38.67-12.08-48.39-29.33-50.75-38.54-2.6-10.16.53-17.02,3.62-20.99,4.25-5.47,11.27-8.87,18.32-8.87,5.31,0,10.07,1.9,13.5,5.29,2.44-8.14,10.72-13.95,20.54-13.95,8.51,0,18.84,4.86,22.33,18.51,2.35,9.21,2.1,29.02-26.04,58.16-.29.3-.68.46-1.08.46Z" />
      <path class="cls-2"
        d="M1132.93,1622.72c8.74,0,17.75,5.16,20.88,17.38,3.27,12.78-2,32.24-25.66,56.75-32.52-10.15-46.48-24.7-49.74-37.48-4.47-17.51,8.46-27.99,20.49-27.99,5.59,0,10.99,2.27,14.35,7.14,1-9.72,10.19-15.81,19.69-15.81M1132.93,1619.72c-9.62,0-17.87,5.25-21.2,12.89-3.5-2.73-7.96-4.22-12.84-4.22-7.62,0-14.92,3.53-19.51,9.45-4.65,5.99-6.03,13.9-3.89,22.28,2.43,9.52,12.39,27.31,51.75,39.61.29.09.6.14.89.14.8,0,1.58-.32,2.16-.92,28.64-29.67,28.84-50.06,26.41-59.58-3.7-14.48-14.71-19.64-23.78-19.64h0Z" />
    </g>
    <g>
      <path class="cls-2"
        d="M1161.44,1687.79c-.31,0-.62-.1-.88-.29-18.89-13.7-21.01-25.02-20.6-30.54.69-9.25,7.35-13.38,13.64-13.38,4.56,0,8.52,2.11,10.63,5.47,2.15-2.51,5.46-3.98,9.18-3.98s7.57,1.57,10.12,4.32c1.84,1.98,3.94,5.52,3.52,11.11-.41,5.52-4.2,16.39-24.92,27.12-.22.11-.45.17-.69.17Z" />
      <path class="cls-5"
        d="M1153.6,1645.09c4.62,0,9.09,2.5,10.4,7.09,1.71-3.75,5.49-5.61,9.41-5.61,6.23,0,12.83,4.67,12.15,13.82-.56,7.48-6.93,17-24.12,25.91-15.67-11.37-20.55-21.74-19.98-29.21.62-8.25,6.5-11.99,12.14-11.99M1153.6,1642.09s0,0,0,0c-6.76,0-14.38,4.62-15.14,14.77-.44,5.83,1.74,17.73,21.21,31.87.52.38,1.14.57,1.76.57.47,0,.94-.11,1.38-.34,21.37-11.07,25.29-22.51,25.73-28.34.46-6.13-1.88-10.04-3.92-12.24-2.83-3.05-6.92-4.8-11.22-4.8-3.48,0-6.64,1.16-9.01,3.2-2.52-2.91-6.42-4.68-10.8-4.68h0Z" />
    </g>
 
  </svg>