<?xml version="1.0" encoding="UTF-8"?>
<svg id="_레이어_1" data-name="레이어 1" xmlns="http://www.w3.org/2000/svg" xmlns:xlink="http://www.w3.org/1999/xlink" viewBox="0 0 1920 2260">
  <defs>
    <style>
      .cls-1 {
        fill: none;
        stroke: url(#_무제_그라디언트_202);
        stroke-miterlimit: 10;
      }

      .cls-2 {
        fill: url(#_무제_그라디언트_197);
      }

      .cls-2, .cls-3, .cls-4, .cls-5, .cls-6, .cls-7 {
        stroke-width: 0px;
      }

      .cls-3 {
        fill: url(#_무제_그라디언트_76);
      }

      .cls-4 {
        fill: url(#_무제_그라디언트_433);
      }

      .cls-5 {
        fill: url(#_무제_그라디언트_197-2);
      }

      .cls-6 {
        fill: #c3c7ff;
      }

      .cls-7 {
        fill: #fff;
      }
    </style>
    <linearGradient id="_무제_그라디언트_202" data-name="무제 그라디언트 202" x1="-19.68" y1="-609.88" x2="964.26" y2="-600.27" gradientTransform="translate(229.52 402.7) rotate(-51.29) scale(1 -1)" gradientUnits="userSpaceOnUse">
      <stop offset="0" stop-color="#667aff"/>
      <stop offset=".25" stop-color="#687cff"/>
      <stop offset=".41" stop-color="#7183ff"/>
      <stop offset=".55" stop-color="#8090ff"/>
      <stop offset=".67" stop-color="#95a2ff"/>
      <stop offset=".78" stop-color="#b0baff"/>
      <stop offset=".89" stop-color="#d1d7ff"/>
      <stop offset=".99" stop-color="#f8f9ff"/>
      <stop offset="1" stop-color="#fff"/>
    </linearGradient>
    <linearGradient id="_무제_그라디언트_76" data-name="무제 그라디언트 76" x1="-573.76" y1="914" x2="2345.03" y2="914" gradientUnits="userSpaceOnUse">
      <stop offset="0" stop-color="#667aff" stop-opacity=".3"/>
      <stop offset=".22" stop-color="rgba(103, 123, 255, .31)" stop-opacity=".31"/>
      <stop offset=".36" stop-color="rgba(109, 128, 255, .34)" stop-opacity=".34"/>
      <stop offset=".48" stop-color="rgba(119, 137, 255, .38)" stop-opacity=".38"/>
      <stop offset=".59" stop-color="rgba(134, 149, 255, .45)" stop-opacity=".45"/>
      <stop offset=".69" stop-color="rgba(152, 166, 255, .53)" stop-opacity=".53"/>
      <stop offset=".78" stop-color="rgba(175, 185, 255, .64)" stop-opacity=".64"/>
      <stop offset=".87" stop-color="rgba(202, 209, 255, .76)" stop-opacity=".76"/>
      <stop offset=".95" stop-color="rgba(233, 235, 255, .9)" stop-opacity=".9"/>
      <stop offset="1" stop-color="#fff"/>
    </linearGradient>
    <linearGradient id="_무제_그라디언트_433" data-name="무제 그라디언트 433" x1="-689.76" y1="920" x2="2229.03" y2="920" gradientUnits="userSpaceOnUse">
      <stop offset="0" stop-color="#667aff" stop-opacity=".3"/>
      <stop offset=".27" stop-color="rgba(110, 153, 255, .34)" stop-opacity=".34"/>
      <stop offset=".72" stop-color="rgba(121, 194, 255, .38)" stop-opacity=".38"/>
      <stop offset="1" stop-color="#7ed1ff" stop-opacity=".4"/>
    </linearGradient>
    <linearGradient id="_무제_그라디언트_197" data-name="무제 그라디언트 197" x1="1344.5" y1="234" x2="2110.5" y2="234" gradientUnits="userSpaceOnUse">
      <stop offset="0" stop-color="#667aff" stop-opacity=".3"/>
      <stop offset=".14" stop-color="rgba(136, 151, 255, .46)" stop-opacity=".46"/>
      <stop offset=".3" stop-color="rgba(172, 182, 255, .62)" stop-opacity=".62"/>
      <stop offset=".46" stop-color="rgba(201, 208, 255, .76)" stop-opacity=".76"/>
      <stop offset=".61" stop-color="rgba(224, 228, 255, .86)" stop-opacity=".86"/>
      <stop offset=".76" stop-color="rgba(241, 243, 255, .94)" stop-opacity=".94"/>
      <stop offset=".89" stop-color="rgba(251, 251, 255, .98)" stop-opacity=".98"/>
      <stop offset="1" stop-color="#fff" stop-opacity="1"/>
    </linearGradient>
    <linearGradient id="_무제_그라디언트_197-2" data-name="무제 그라디언트 197" x1="1431.5" y1="213" x2="2197.5" y2="213" xlink:href="#_무제_그라디언트_197"/>
  </defs>
  <path class="cls-1" d="M-63.5,204.5s403.33,148.64,585,66c181.67-82.64,77,104,249,260,161.33,146.33,1287,90,1287,90"/>
  <path class="cls-3" d="M-416,798c41.42,24.08-105.92,182.11-34,341,43.13,95.28-268.36-193.25-38-225,153.86-21.21,2580.6,427.05,2733,457,385.23,75.71-494.05,38.19-104,119-87.29-16.04-2440.12-1077.96-2510-1152"/>
  <path class="cls-4" d="M-532,804c41.42,24.08-105.92,182.11-34,341,43.13,95.28-268.36-193.25-38-225,153.86-21.21,2580.6,427.05,2733,457,385.23,75.71-494.05,38.19-104,119-87.29-16.04-2440.12-1077.96-2510-1152"/>
  <rect class="cls-2" x="1344.5" y="210.5" width="766" height="47" rx="23.5" ry="23.5"/>
  <rect class="cls-5" x="1431.5" y="196.5" width="766" height="33" rx="16.5" ry="16.5"/>
  <g>
    <path class="cls-6" d="M1642.26,148.69c1.62-9.17,8.43-17.48,17.9-22.61,9.47-5.12,21.43-7.1,32.89-5.86,4.27.46,8.54,1.35,12.81,1.07,3.53-.23,6.89-1.23,10.31-1.94,11.02-2.27,22.79-1.37,34.02.63,8.06,1.44,15.97,3.44,23.98,5.08,15.26,3.12,31.13,5,45.17,10.84,14.04,5.85,26.28,16.94,26.1,29.56-.06,3.96-1.47,8.05-4.94,10.8-.96.76-2.08,1.42-2.75,2.36-1.03,1.44-.84,3.22-.9,4.9-.33,8.86-8.7,16.36-18.62,20.02-9.92,3.66-21.2,4.2-32.19,4.48-10.99.28-22.22.38-32.53,3.28-4.41,1.24-8.58,2.98-13.09,3.97-6.52,1.43-13.45,1.25-20.26,1.05-16.55-.49-34.08-1.21-48.04-8.65-2.07-1.11-4.06-2.36-6.32-3.19-2.8-1.03-5.89-1.37-8.91-1.8-7.76-1.11-15.55-3.01-21.99-6.76-6.44-3.75-11.39-9.57-11.83-15.9-.37-5.34,2.42-10.43,5.58-15.06,3.83-5.62,8.32-10.94,13.38-15.87"/>
    <path class="cls-7" d="M1642.98,148.89c2.97-16.17,19.33-25.32,34.35-27.61,4.32-.66,8.73-.82,13.09-.54,4.6.3,9.15,1.35,13.77,1.35s8.73-1.37,13.09-2.2c4.66-.88,9.41-1.19,14.15-1.12,9.68.14,19.22,1.91,28.65,3.98s18.25,3.9,27.44,5.6c16.53,3.05,34.55,6.41,47.4,18.11,5.07,4.62,9.41,10.77,9.73,17.84.17,3.76-.85,7.63-3.53,10.37-1.33,1.36-3.28,2.22-4.26,3.91-.9,1.56-.71,3.38-.79,5.11-.37,7.41-6.45,13.14-12.53,16.57-7.6,4.29-16.53,5.76-25.12,6.44-9.16.73-18.35.51-27.51,1.12-4.48.3-8.97.8-13.37,1.72s-8.82,2.56-13.22,3.9c-9.08,2.78-18.49,2.32-27.86,2.01-8.62-.29-17.28-.73-25.77-2.35-4.07-.78-8.09-1.82-11.97-3.28-2.01-.75-3.97-1.62-5.87-2.61s-3.69-2.11-5.64-2.96c-4.05-1.76-8.51-1.98-12.82-2.71s-8.82-1.78-13.01-3.38c-7.16-2.72-14.97-7.77-17.12-15.61-1.14-4.16,0-8.37,1.93-12.11,2.03-3.94,4.74-7.59,7.5-11.05s5.72-6.69,8.86-9.77c.69-.68-.37-1.74-1.06-1.06-3.36,3.29-6.52,6.78-9.42,10.47s-5.5,7.21-7.47,11.24c-1.75,3.57-2.8,7.52-2.06,11.5.66,3.58,2.67,6.81,5.14,9.43,5.91,6.3,14.5,9.37,22.76,11.11,4.58.96,9.38,1.15,13.88,2.47,4.27,1.25,7.98,4.02,12.08,5.72,8,3.33,16.65,4.8,25.24,5.6,9.11.85,18.42,1.25,27.57,1.08,4.79-.09,9.55-.58,14.17-1.89s9.16-3.12,13.9-4.16c9.51-2.08,19.31-2.12,28.99-2.37s18.73-.62,27.74-3.08c7.43-2.04,14.86-5.73,19.65-11.96,2.07-2.69,3.52-5.82,3.87-9.21.21-2.03-.3-4.34,1.26-5.95,1.45-1.5,3.25-2.43,4.53-4.14,4.29-5.72,3.3-13.69.14-19.67-3.5-6.63-9.53-11.75-15.89-15.55-7.62-4.55-16.21-7.24-24.8-9.28-9.17-2.17-18.49-3.59-27.72-5.45-9.79-1.98-19.47-4.54-29.36-5.98s-19.29-1.85-28.79-.05c-4.72.89-9.25,2.33-14.11,2.11s-9.51-1.25-14.31-1.41c-16.15-.54-34.31,5.2-43.16,19.64-1.83,2.98-3.13,6.27-3.76,9.7-.17.94,1.27,1.35,1.45.4h0Z"/>
  </g>
  <g>
    <path class="cls-7" d="M1853.97,195.56c-.73-5.07-4.32-9.77-9.44-12.75s-11.66-4.29-17.98-3.81c-2.36.18-4.72.59-7.06.36-1.94-.19-3.76-.8-5.63-1.25-6.02-1.45-12.51-1.16-18.72-.26-4.46.65-8.84,1.6-13.28,2.36-8.45,1.44-17.21,2.19-25.03,5.15-7.83,2.96-14.75,8.85-14.88,15.78-.04,2.18.66,4.45,2.52,6.03.51.44,1.12.82,1.47,1.35.54.81.4,1.79.41,2.71.02,4.88,4.49,9.15,9.88,11.34,5.39,2.19,11.58,2.69,17.62,3.04,6.04.35,12.21.61,17.83,2.39,2.4.76,4.67,1.79,7.13,2.42,3.56.91,7.38.93,11.12.94,9.11.03,18.76-.06,26.57-3.9,1.16-.57,2.27-1.22,3.53-1.64,1.56-.52,3.27-.65,4.93-.83,4.29-.47,8.6-1.38,12.21-3.32,3.61-1.94,6.44-5.06,6.79-8.53.3-2.93-1.14-5.78-2.8-8.38-2.01-3.16-4.38-6.16-7.07-8.97"/>
    <path class="cls-6" d="M1854.69,195.36c-1.41-9.05-10.12-14.73-18.5-16.48-2.31-.48-4.69-.73-7.05-.73-2.69,0-5.33.5-8.01.52s-5.31-.93-7.98-1.49c-2.51-.53-5.08-.78-7.64-.83-5.48-.1-10.91.74-16.28,1.73s-10.65,1.89-16,2.7c-9.41,1.44-19.68,3.26-26.87,10.06-2.77,2.62-4.97,6.07-5.16,9.97-.1,1.96.38,3.99,1.54,5.59.64.89,1.56,1.41,2.28,2.2.9.99.49,2.48.65,3.71.5,3.93,3.47,7.05,6.68,9.1,4.11,2.62,9,3.7,13.78,4.3,5.34.67,10.74.68,16.09,1.23,2.68.27,5.35.68,7.95,1.39s4.88,1.75,7.36,2.5c4.97,1.5,10.31,1.29,15.45,1.27s10.04-.19,14.96-1.12c2.34-.44,4.65-1.07,6.86-1.96,2.33-.94,4.45-2.39,6.95-2.87s5.23-.59,7.82-1.11c2.42-.48,4.8-1.19,7.03-2.25,3.57-1.69,7.19-4.72,7.98-8.79.93-4.78-2.39-9.36-5.08-12.98-1.51-2.02-3.14-3.94-4.88-5.77-.67-.7-1.73.36-1.06,1.06,3.38,3.55,6.86,7.65,8.8,12.2.91,2.13,1.23,4.44.31,6.62-.82,1.94-2.35,3.53-4.04,4.74-3.94,2.82-8.94,3.83-13.67,4.36-2.25.25-4.44.47-6.53,1.41s-4.14,2.06-6.38,2.77c-4.46,1.41-9.15,1.89-13.8,2.08s-9.65.3-14.42-.06c-2.61-.2-5.11-.73-7.58-1.6-2.25-.8-4.46-1.67-6.78-2.23-4.81-1.16-9.77-1.41-14.69-1.69-8.62-.49-20.06-.85-25.77-8.48-1.13-1.52-1.89-3.29-1.92-5.2-.01-.92.09-1.87-.32-2.73-.45-.94-1.35-1.43-2.08-2.13-3.15-3.01-2.14-7.95-.02-11.22,4.96-7.64,14.87-10.4,23.28-11.97,4.84-.9,9.73-1.49,14.58-2.33,5.13-.89,10.23-2.04,15.41-2.61s10.42-.63,15.48.54c2.25.52,4.44,1.27,6.76,1.38,2.49.12,4.96-.36,7.44-.47,8.78-.38,18.9,2.67,23.64,10.63,1.01,1.69,1.67,3.51,1.97,5.45.15.95,1.59.55,1.45-.4h0Z"/>
  </g>
</svg>