<?xml version="1.0" encoding="UTF-8"?>
<svg id="_레이어_1" data-name="레이어 1" xmlns="http://www.w3.org/2000/svg" xmlns:xlink="http://www.w3.org/1999/xlink" viewBox="0 0 1920 2260">
  <defs>
    <style>
      .cls-1 {
        fill: #454ebf;
      }

      .cls-1, .cls-2, .cls-3, .cls-4, .cls-5, .cls-6, .cls-7, .cls-8, .cls-9, .cls-10, .cls-11 {
        stroke-width: 0px;
      }

      .cls-2 {
        fill: url(#_무제_그라디언트_428);
      }

      .cls-3 {
        fill: url(#_무제_그라디언트_363-3);
      }

      .cls-4 {
        fill: url(#_무제_그라디언트_121);
      }

      .cls-5 {
        fill: #4483c1;
      }

      .cls-12 {
        fill: none;
        stroke: url(#_무제_그라디언트_91);
        stroke-miterlimit: 10;
      }

      .cls-6 {
        fill: url(#_무제_그라디언트_363-2);
      }

      .cls-7 {
        fill: #cce5ff;
      }

      .cls-8 {
        fill: url(#_무제_그라디언트_363);
      }

      .cls-9 {
        fill: url(#_무제_그라디언트_108);
      }

      .cls-10 {
        fill: #fff;
      }

      .cls-11 {
        fill: url(#_무제_그라디언트_428-2);
      }
    </style>
    <linearGradient id="_무제_그라디언트_91" data-name="무제 그라디언트 91" x1="-958.32" y1="1941.26" x2="2473.71" y2="1941.26" gradientTransform="translate(204.41 -86.76) rotate(5.83)" gradientUnits="userSpaceOnUse">
      <stop offset="0" stop-color="#667aff"/>
      <stop offset=".3" stop-color="#667cff"/>
      <stop offset=".5" stop-color="#6985ff"/>
      <stop offset=".66" stop-color="#6d94ff"/>
      <stop offset=".81" stop-color="#73a9ff"/>
      <stop offset=".95" stop-color="#7ac3ff"/>
      <stop offset="1" stop-color="#7ed1ff"/>
    </linearGradient>
    <linearGradient id="_무제_그라디언트_363" data-name="무제 그라디언트 363" x1="1409.58" y1="1087" x2="2166.34" y2="1087" gradientUnits="userSpaceOnUse">
      <stop offset="0" stop-color="#fff"/>
      <stop offset="1" stop-color="#cce5ff"/>
    </linearGradient>
    <linearGradient id="_무제_그라디언트_121" data-name="무제 그라디언트 121" x1="914" y1="1347" x2="2090" y2="1347" gradientUnits="userSpaceOnUse">
      <stop offset="0" stop-color="#fff"/>
      <stop offset=".27" stop-color="#f6faff"/>
      <stop offset=".71" stop-color="#deeeff"/>
      <stop offset="1" stop-color="#cce5ff"/>
    </linearGradient>
    <linearGradient id="_무제_그라디언트_363-2" data-name="무제 그라디언트 363" x1="1309.58" y1="1202" x2="2066.33" y2="1202" xlink:href="#_무제_그라디언트_363"/>
    <linearGradient id="_무제_그라디언트_428" data-name="무제 그라디언트 428" x1="-8.13" y1="1239" x2="748.63" y2="1239" gradientTransform="translate(-241.79 2478) scale(1 -1)" gradientUnits="userSpaceOnUse">
      <stop offset="0" stop-color="#f3f7ff"/>
      <stop offset=".37" stop-color="#f0f4ff"/>
      <stop offset=".61" stop-color="#e7ebff"/>
      <stop offset=".81" stop-color="#d8dcff"/>
      <stop offset=".99" stop-color="#c4c8ff"/>
      <stop offset="1" stop-color="#c3c7ff"/>
    </linearGradient>
    <linearGradient id="_무제_그라디언트_428-2" data-name="무제 그라디언트 428" x1="-194.59" y1="1372.5" x2="562.16" y2="1372.5" gradientTransform="translate(131.13 2745) scale(1 -1)" xlink:href="#_무제_그라디언트_428"/>
    <linearGradient id="_무제_그라디언트_363-3" data-name="무제 그라디언트 363" x1="1298.58" y1="1457.64" x2="2055.34" y2="1457.64" xlink:href="#_무제_그라디언트_363"/>
    <linearGradient id="_무제_그라디언트_108" data-name="무제 그라디언트 108" x1="-102.84" y1="2358.45" x2="1922.23" y2="1840.87" gradientUnits="userSpaceOnUse">
      <stop offset="0" stop-color="#fff" stop-opacity=".5"/>
      <stop offset=".15" stop-color="rgba(245, 246, 255, .5)" stop-opacity=".5"/>
      <stop offset=".32" stop-color="rgba(218, 222, 255, .5)" stop-opacity=".5"/>
      <stop offset=".5" stop-color="rgba(172, 183, 255, .5)" stop-opacity=".5"/>
      <stop offset=".68" stop-color="rgba(109, 128, 255, .5)" stop-opacity=".5"/>
      <stop offset=".7" stop-color="#667aff" stop-opacity=".5"/>
    </linearGradient>
  </defs>
  <path class="cls-12" d="M-926.67,1555.77s868.07-16.81,1533.36,276.4c1157.62,510.2,1840.8,463.33,1840.8,463.33"/>
  <rect class="cls-8" x="1409.58" y="1020" width="756.76" height="134" rx="67" ry="67"/>
  <rect class="cls-4" x="914" y="1269" width="1176" height="156" rx="78" ry="78"/>
  <rect class="cls-6" x="1309.58" y="1135" width="756.76" height="134" rx="67" ry="67"/>
  <rect class="cls-2" x="-249.92" y="1172" width="756.76" height="134" rx="67" ry="67" transform="translate(256.92 2478) rotate(180)"/>
  <rect class="cls-11" x="-63.46" y="1305.5" width="756.76" height="134" rx="67" ry="67" transform="translate(629.84 2745) rotate(-180)"/>
  <rect class="cls-3" x="1298.58" y="1390.64" width="756.76" height="134" rx="67" ry="67"/>
  <path class="cls-9" d="M-128,1918.37s137.35,97.63,1147.35,219.63l1010,122H-128v-341.63Z"/>
  <g>
    <path class="cls-5" d="M1572.6,1067.1l-1.6,7.2h5.86l-.42,1.95h-5.86l-2.11,9.54h5.82l-.42,1.95h-5.86l-1.6,7.2h-2.59l1.6-7.2h-8.42l-1.6,7.2h-2.59l1.6-7.2h-5.86l.45-1.95h5.82l2.14-9.54h-5.86l.42-1.92h5.86l1.6-7.23h2.59l-1.6,7.23h8.42l1.63-7.23h2.56ZM1565.88,1085.79l2.11-9.54h-8.45l-2.11,9.54h8.45Z"/>
    <path class="cls-5" d="M1583.64,1080.83c-1.75-1.3-2.62-3.14-2.62-5.5s.87-4.19,2.62-5.47c1.54-1.13,3.52-1.7,5.95-1.7s4.42.57,5.95,1.7c1.75,1.28,2.62,3.1,2.62,5.47s-.88,4.2-2.62,5.5c-1.54,1.13-3.52,1.7-5.95,1.7s-4.42-.56-5.95-1.7ZM1584.79,1071.39c-1.22.92-1.82,2.24-1.82,3.95s.61,3.02,1.82,3.92c1.17.88,2.77,1.31,4.78,1.31s3.62-.44,4.82-1.31c1.22-.9,1.82-2.2,1.82-3.92s-.61-3.04-1.82-3.95c-1.2-.88-2.8-1.31-4.82-1.31s-3.61.44-4.78,1.31ZM1584.15,1094.94c-.19,0-.36-.06-.5-.19s-.21-.29-.21-.48v-9.6h2.11v8.35h20.77v1.92h-22.18ZM1603.74,1071.71v-4.61h2.11v20.77h-2.11v-8.74h-5.7v-1.95h5.7v-3.55h-5.7v-1.92h5.7Z"/>
    <path class="cls-5" d="M1625.05,1081.5v10.5h12.64v1.92h-27.42v-1.92h12.67v-10.5h2.11ZM1631.61,1068.9l4.61,15.81h-2.21l-4.29-14.66h-11.68l-4.29,14.66h-2.02l4.9-16.77h13.7c.3,0,.57.09.8.26.23.17.39.41.48.7Z"/>
    <path class="cls-5" d="M1641.21,1080.42c0-2.11.21-4,.64-5.66.41-1.6.99-2.97,1.76-4.1.77-1.11,1.68-1.94,2.75-2.5,1.04-.58,2.18-.86,3.41-.86s2.36.29,3.41.86c1.09.56,2.02,1.39,2.78,2.5.77,1.13,1.35,2.5,1.76,4.1.43,1.66.64,3.55.64,5.66s-.21,4-.64,5.66c-.41,1.6-.99,2.97-1.76,4.1-.77,1.11-1.7,1.95-2.78,2.53-1.04.55-2.18.83-3.41.83s-2.36-.28-3.41-.83c-1.07-.58-1.98-1.42-2.75-2.53-.77-1.11-1.36-2.47-1.76-4.1-.43-1.66-.64-3.55-.64-5.66ZM1645.21,1071.78c-1.39,1.98-2.08,4.87-2.08,8.66s.69,6.67,2.08,8.66c1.15,1.66,2.67,2.5,4.56,2.5s3.42-.83,4.59-2.5c1.36-1.98,2.05-4.87,2.05-8.66s-.68-6.67-2.05-8.66c-1.17-1.68-2.7-2.53-4.59-2.53s-3.41.84-4.56,2.53ZM1666.04,1078.56h4.67v1.95h-4.67v14.43h-2.11v-27.84h2.11v11.46Z"/>
    <path class="cls-5" d="M1671.61,1093.73v-2.11h12.03v2.11h-12.03Z"/>
    <path class="cls-5" d="M1689.91,1080.93h14.91v1.95h-16.32c-.19,0-.36-.07-.5-.21s-.21-.3-.21-.5v-14.24h16.35v1.95h-14.24v4.22h14.24v1.92h-14.24v4.9ZM1690.39,1094.94c-.19,0-.36-.06-.5-.19s-.21-.29-.21-.48v-9.6h2.11v8.35h20.74v1.92h-22.14ZM1712.09,1067.1v6.72h4.64v1.92h-4.64v12.13h-2.11v-20.77h2.11Z"/>
    <path class="cls-5" d="M1727.03,1070.02h-2.53l-4,11.78h-2.02l3.97-11.78.74-2.11h3.84c.66,0,1.26.19,1.79.58.53.38.91.89,1.12,1.5l4.22,11.81h-2.24l-3.97-11.1c-.15-.45-.46-.67-.93-.67ZM1739.99,1084.35c1.45,0,2.7.52,3.74,1.55,1.04,1.04,1.57,2.28,1.57,3.74s-.52,2.71-1.57,3.76c-1.05,1.04-2.29,1.57-3.74,1.57h-13.41c-1.47,0-2.73-.52-3.76-1.55s-1.55-2.29-1.55-3.76.52-2.72,1.55-3.76,2.29-1.55,3.76-1.55h13.41ZM1742.34,1092.03c.65-.66.98-1.45.98-2.37s-.33-1.71-.98-2.37-1.43-.99-2.35-.99h-13.44c-.94,0-1.73.33-2.38.98s-.98,1.45-.98,2.38.32,1.73.98,2.38,1.45.98,2.38.98h13.44c.92,0,1.7-.33,2.35-.99ZM1736.76,1067.33h2.11v6.5h3.94v-6.72h2.11v15.33h-2.11v-6.69h-3.94v6.53h-2.11v-14.94Z"/>
    <path class="cls-5" d="M1754.07,1080.26c-1.75-1.28-2.62-3.11-2.62-5.49s.87-4.21,2.62-5.49c1.54-1.13,3.52-1.7,5.95-1.7s4.42.57,5.95,1.7c1.75,1.3,2.62,3.14,2.62,5.5s-.88,4.19-2.62,5.47c-1.54,1.13-3.52,1.7-5.95,1.7s-4.42-.56-5.95-1.7ZM1754.04,1094.94c-.19,0-.35-.06-.48-.19-.13-.13-.19-.29-.19-.48v-5.95h20.8v-2.14h-20.8v-1.92h22.91v6.02h-20.8v2.75h21.06v1.92h-22.5ZM1755.22,1070.85c-1.22.9-1.82,2.2-1.82,3.92s.61,3.04,1.82,3.95c1.17.88,2.77,1.31,4.78,1.31s3.62-.44,4.82-1.31c1.22-.92,1.82-2.23,1.82-3.95s-.61-3.02-1.82-3.92c-1.2-.88-2.8-1.31-4.82-1.31s-3.61.44-4.78,1.31ZM1774.17,1082.43v-15.33h2.11v15.33h-2.11Z"/>
  </g>
  <g>
    <path class="cls-5" d="M1619.31,1191.1l-1.6,7.2h5.86l-.42,1.95h-5.86l-2.11,9.54h5.82l-.42,1.95h-5.86l-1.6,7.2h-2.59l1.6-7.2h-8.42l-1.6,7.2h-2.59l1.6-7.2h-5.86l.45-1.95h5.82l2.14-9.54h-5.86l.42-1.92h5.86l1.6-7.23h2.59l-1.6,7.23h8.42l1.63-7.23h2.56ZM1612.59,1209.79l2.11-9.54h-8.45l-2.11,9.54h8.45Z"/>
    <path class="cls-5" d="M1639.79,1193.95l3.84,10.78-2.21.06-3.62-10.11c-.17-.45-.49-.67-.96-.67h-4.29l-3.65,10.72h-2.02l3.68-10.91h-3.55v-1.92h7.17v-2.46h2.11v2.46h7.2v1.92h-3.78s.04.09.06.13ZM1628.75,1208.77h22.21c.19,0,.36.07.5.21s.21.3.21.5v9.57h-22.24c-.19,0-.35-.07-.48-.21s-.19-.3-.19-.5v-9.57ZM1649.55,1217.09v-6.4h-18.69v6.4h18.69ZM1649.55,1206.53v-15.33h2.11v15.33h-2.11Z"/>
    <path class="cls-5" d="M1673.23,1193.89h-12.7v22.11h12.7v1.92h-14.11c-.19,0-.36-.07-.5-.21-.14-.14-.21-.3-.21-.5v-25.28h14.82v1.95ZM1675.5,1191.33h2.11v10.91h3.94v-11.14h2.11v27.84h-2.11v-14.75h-3.94v14.3h-2.11v-27.17Z"/>
    <path class="cls-5" d="M1706.32,1191.94v1.92h-4.7s.01.09.03.13l4.61,12.9h-2.24l-4.35-12.19c-.15-.45-.46-.67-.93-.67h-4.32l-4.48,12.86h-2.02l4.51-13.02h-3.9v-1.92h17.79ZM1691.86,1218.94c-.19,0-.36-.06-.5-.19-.14-.13-.21-.29-.21-.48v-9.6h2.11v8.35h20.74v1.92h-22.14ZM1711.41,1211.87v-20.77h2.11v20.77h-2.11Z"/>
    <path class="cls-5" d="M1732.08,1193.98l4.22,11.81h-2.27l-3.94-11.1c-.17-.45-.49-.67-.96-.67h-4.29l-4,11.78h-2.02l4.7-13.89h5.6c.68,0,1.29.19,1.82.58s.91.89,1.12,1.5ZM1721.04,1208.67h22.21c.19,0,.36.07.5.21s.21.3.21.5v9.57h-22.21c-.19,0-.36-.06-.5-.19s-.21-.29-.21-.48v-9.6ZM1741.84,1217.02v-6.4h-18.69v6.4h18.69ZM1741.84,1206.43v-15.33h2.11v15.33h-2.11Z"/>
    <path class="cls-5" d="M1753.78,1216h14.91v1.92h-16.32c-.19,0-.36-.07-.5-.21-.14-.14-.21-.3-.21-.5v-25.28h2.11v24.06ZM1773.84,1197.5v-6.4h2.11v27.84h-2.11v-9.92h-5.7v-1.95h5.7v-7.65h-5.7v-1.92h5.7Z"/>
  </g>
  <g>
    <path class="cls-5" d="M1518.11,1438.75l-1.6,7.2h5.86l-.42,1.95h-5.86l-2.11,9.54h5.82l-.42,1.95h-5.86l-1.6,7.2h-2.59l1.6-7.2h-8.42l-1.6,7.2h-2.59l1.6-7.2h-5.86l.45-1.95h5.82l2.14-9.54h-5.86l.42-1.92h5.86l1.6-7.23h2.59l-1.6,7.23h8.42l1.63-7.23h2.56ZM1511.38,1457.44l2.11-9.54h-8.45l-2.11,9.54h8.45Z"/>
    <path class="cls-5" d="M1529.14,1452.47c-1.75-1.3-2.62-3.13-2.62-5.5s.87-4.19,2.62-5.47c1.54-1.13,3.52-1.7,5.95-1.7s4.42.57,5.95,1.7c1.75,1.28,2.62,3.1,2.62,5.47s-.88,4.2-2.62,5.5c-1.54,1.13-3.52,1.7-5.95,1.7s-4.42-.56-5.95-1.7ZM1530.3,1443.04c-1.22.92-1.82,2.24-1.82,3.95s.61,3.02,1.82,3.92c1.17.88,2.77,1.31,4.78,1.31s3.62-.44,4.82-1.31c1.22-.9,1.82-2.2,1.82-3.92s-.61-3.04-1.82-3.95c-1.2-.88-2.8-1.31-4.82-1.31s-3.61.44-4.78,1.31ZM1529.66,1466.59c-.19,0-.36-.06-.5-.19-.14-.13-.21-.29-.21-.48v-9.6h2.11v8.35h20.77v1.92h-22.18ZM1549.24,1443.36v-4.61h2.11v20.77h-2.11v-8.74h-5.7v-1.95h5.7v-3.55h-5.7v-1.92h5.7Z"/>
    <path class="cls-5" d="M1570.55,1453.15v10.5h12.64v1.92h-27.42v-1.92h12.67v-10.5h2.11ZM1577.11,1440.54l4.61,15.81h-2.21l-4.29-14.66h-11.68l-4.29,14.66h-2.02l4.9-16.77h13.7c.3,0,.57.09.8.26s.39.4.48.7Z"/>
    <path class="cls-5" d="M1586.71,1452.06c0-2.11.21-4,.64-5.66.41-1.6.99-2.97,1.76-4.1.77-1.11,1.68-1.94,2.75-2.5,1.04-.57,2.18-.86,3.41-.86s2.36.29,3.41.86c1.09.56,2.02,1.39,2.78,2.5.77,1.13,1.35,2.5,1.76,4.1.43,1.66.64,3.55.64,5.66s-.21,4-.64,5.66c-.41,1.6-.99,2.97-1.76,4.1-.77,1.11-1.7,1.95-2.78,2.53-1.04.55-2.18.83-3.41.83s-2.36-.28-3.41-.83c-1.07-.58-1.98-1.42-2.75-2.53-.77-1.11-1.36-2.47-1.76-4.1-.43-1.66-.64-3.55-.64-5.66ZM1590.71,1443.42c-1.39,1.98-2.08,4.87-2.08,8.66s.69,6.67,2.08,8.66c1.15,1.66,2.67,2.5,4.56,2.5s3.42-.83,4.59-2.5c1.36-1.98,2.05-4.87,2.05-8.66s-.68-6.67-2.05-8.66c-1.17-1.69-2.7-2.53-4.59-2.53s-3.41.84-4.56,2.53ZM1611.54,1450.2h4.67v1.95h-4.67v14.43h-2.11v-27.84h2.11v11.46Z"/>
    <path class="cls-5" d="M1617.82,1453.6v-1.92h27.42v1.92h-27.42ZM1643.22,1445.24h-21.28v2.14h21.28v1.95h-22.69c-.19,0-.36-.07-.5-.21-.14-.14-.21-.3-.21-.5v-5.31h21.28v-1.86h-21.28v-1.95h23.39v5.73ZM1620.6,1466.55c-.19,0-.35-.06-.48-.19-.13-.13-.19-.3-.19-.51v-5.92h20.8v-2.14h-20.8v-1.95h22.91v6.05h-20.8v2.75h21.06v1.92h-22.5Z"/>
    <path class="cls-5" d="M1647.16,1465.37v-2.11h12.03v2.11h-12.03Z"/>
    <path class="cls-5" d="M1661.98,1452.06c0-2.11.21-4,.64-5.66.41-1.6.99-2.97,1.76-4.1.77-1.11,1.68-1.94,2.75-2.5,1.04-.57,2.18-.86,3.41-.86s2.36.29,3.41.86c1.09.56,2.02,1.39,2.78,2.5.77,1.13,1.35,2.5,1.76,4.1.43,1.66.64,3.55.64,5.66s-.21,4-.64,5.66c-.41,1.6-.99,2.97-1.76,4.1-.77,1.11-1.7,1.95-2.78,2.53-1.04.55-2.18.83-3.41.83s-2.36-.28-3.41-.83c-1.07-.58-1.98-1.42-2.75-2.53-.77-1.11-1.36-2.47-1.76-4.1-.43-1.66-.64-3.55-.64-5.66ZM1665.98,1443.42c-1.39,1.98-2.08,4.87-2.08,8.66s.69,6.67,2.08,8.66c1.15,1.66,2.67,2.5,4.56,2.5s3.42-.83,4.59-2.5c1.36-1.98,2.05-4.87,2.05-8.66s-.68-6.67-2.05-8.66c-1.17-1.69-2.7-2.53-4.59-2.53s-3.41.84-4.56,2.53ZM1686.81,1450.2h4.67v1.95h-4.67v14.43h-2.11v-27.84h2.11v11.46Z"/>
    <path class="cls-5" d="M1694.65,1452.41c0-2.11.21-4,.64-5.66.41-1.6.99-2.96,1.76-4.1.77-1.11,1.68-1.94,2.75-2.5,1.04-.58,2.18-.87,3.41-.87s2.36.29,3.41.87c1.09.55,2.02,1.39,2.78,2.5.77,1.13,1.35,2.5,1.76,4.1.43,1.66.64,3.55.64,5.66s-.21,4-.64,5.66c-.41,1.6-.99,2.96-1.76,4.1-.77,1.11-1.7,1.95-2.78,2.53-1.04.55-2.18.83-3.41.83s-2.36-.28-3.41-.83c-1.07-.58-1.98-1.42-2.75-2.53-.77-1.11-1.36-2.47-1.76-4.1-.43-1.66-.64-3.55-.64-5.66ZM1698.65,1443.77c-1.39,1.98-2.08,4.87-2.08,8.66s.69,6.67,2.08,8.66c1.15,1.66,2.67,2.5,4.56,2.5s3.42-.83,4.59-2.5c1.37-1.98,2.05-4.87,2.05-8.66s-.68-6.67-2.05-8.66c-1.17-1.69-2.7-2.53-4.59-2.53s-3.41.84-4.56,2.53ZM1717.37,1466.59v-27.84h2.11v27.84h-2.11Z"/>
    <path class="cls-5" d="M1749.37,1441.5h-21.28v5.92h21.28v1.92h-10.66v2.78h12.67v1.95h-27.42v-1.95h12.64v-2.78h-9.92c-.19,0-.36-.07-.5-.21-.14-.14-.21-.3-.21-.5v-9.12l23.39.03v1.95ZM1726.74,1466.55c-.19,0-.35-.06-.48-.19-.13-.13-.19-.3-.19-.51v-5.92h20.8v-2.14h-20.8v-1.95h22.91v6.05h-20.8v2.75h21.06v1.92h-22.5Z"/>
    <path class="cls-5" d="M1756.02,1439.58h23.39v9.34h-21.28v5.47h21.28v1.95h-10.62v7.3h12.64v1.92h-27.42v-1.92h12.67v-7.3h-9.95c-.19,0-.36-.07-.5-.21-.14-.14-.21-.3-.21-.49v-8.64h21.28v-5.47h-21.28v-1.95Z"/>
  </g>
  <g>
    <path class="cls-5" d="M1121.47,1319.39l-1.6,7.2h5.86l-.42,1.95h-5.86l-2.11,9.54h5.82l-.42,1.95h-5.86l-1.6,7.2h-2.59l1.6-7.2h-8.42l-1.6,7.2h-2.59l1.6-7.2h-5.86l.45-1.95h5.82l2.14-9.54h-5.86l.42-1.92h5.86l1.6-7.23h2.59l-1.6,7.23h8.42l1.63-7.23h2.56ZM1114.75,1338.08l2.11-9.54h-8.45l-2.11,9.54h8.45Z"/>
    <path class="cls-5" d="M1141.5,1322.24l3.84,10.78-2.21.06-3.62-10.11c-.17-.45-.49-.67-.96-.67h-4.29l-3.65,10.72h-2.02l3.68-10.91h-3.55v-1.92h7.17v-2.46h2.11v2.46h7.2v1.92h-3.78s.04.09.06.13ZM1148.42,1336.7c1.47,0,2.72.52,3.76,1.57,1.03,1.05,1.55,2.3,1.55,3.76s-.52,2.71-1.55,3.74c-1.04,1.04-2.29,1.55-3.76,1.55h-13.38c-1.47,0-2.73-.52-3.76-1.55-1.03-1.04-1.55-2.28-1.55-3.74s.52-2.71,1.55-3.76c1.04-1.04,2.29-1.57,3.76-1.57h13.38ZM1150.8,1344.4c.65-.65.98-1.44.98-2.37s-.33-1.72-.98-2.38c-.65-.66-1.45-.99-2.38-.99h-13.41c-.94,0-1.74.33-2.4.99-.66.66-.99,1.46-.99,2.38s.33,1.72.99,2.38c.66.66,1.46.99,2.4.99h13.41c.94-.02,1.73-.36,2.38-1.01ZM1151.26,1326.18v-6.69h2.11v15.33h-2.11v-6.69h-5.7v-1.95h5.7Z"/>
    <path class="cls-5" d="M1162.59,1332.13h14.72v1.95h-16.13c-.19,0-.36-.07-.5-.21s-.21-.3-.21-.5v-7.55h14.08v-3.68h-14.08v-1.95h16.19v7.58h-14.08v4.35ZM1179.65,1336.64c1.47,0,2.73.52,3.76,1.55s1.55,2.28,1.55,3.74-.52,2.71-1.55,3.76c-1.03,1.04-2.29,1.57-3.76,1.57h-13.41c-1.45,0-2.7-.52-3.74-1.55-1.05-1.04-1.57-2.29-1.57-3.76s.52-2.72,1.57-3.76c1.04-1.03,2.29-1.55,3.74-1.55h13.41ZM1182,1344.32c.65-.66.98-1.45.98-2.37s-.33-1.71-.98-2.37c-.65-.66-1.44-.99-2.35-.99h-13.44c-.92,0-1.71.33-2.37.98-.66.65-.99,1.45-.99,2.38s.33,1.73.99,2.38c.66.65,1.45.98,2.37.98h13.44c.92,0,1.7-.33,2.35-.99ZM1184.58,1319.39v3.97h4.67v1.92h-4.67v3.55h4.67v1.95h-4.67v3.94h-2.11v-15.33h2.11Z"/>
    <path class="cls-5" d="M1201.47,1320.9h8.13v1.92h-18.37v-1.92h8.13v-3.17h2.11v3.17ZM1208.19,1327.84c.32.7.48,1.54.48,2.5s-.16,1.8-.48,2.53c-.34.75-.88,1.37-1.63,1.86-1.3.85-3.35,1.28-6.14,1.28s-4.84-.43-6.14-1.28c-.75-.49-1.29-1.11-1.63-1.86-.34-.72-.51-1.57-.51-2.53s.17-1.79.51-2.5c.34-.77.88-1.39,1.63-1.86,1.3-.85,3.35-1.28,6.14-1.28s4.84.43,6.14,1.28c.73.47,1.27,1.09,1.63,1.86ZM1205.5,1333.09c.83-.53,1.25-1.45,1.25-2.74s-.42-2.2-1.25-2.74c-.98-.66-2.68-.99-5.09-.99s-4.11.33-5.09.99c-.83.53-1.25,1.45-1.25,2.74s.42,2.2,1.25,2.74c.98.66,2.68.99,5.09.99s4.11-.33,5.09-.99ZM1194.88,1347.33c-.19,0-.36-.07-.5-.21s-.21-.3-.21-.5v-9.57h2.11v8.32h20.77v1.95h-22.18ZM1216.58,1319.49v8.1h4.64v1.95h-4.64v10.72h-2.11v-20.77h2.11Z"/>
    <path class="cls-5" d="M1222.3,1346.02v-2.11h12.03v2.11h-12.03Z"/>
    <path class="cls-5" d="M1251.01,1333.92v10.5h12.64v1.92h-27.42v-1.92h12.67v-10.5h2.11ZM1254.88,1322.66l6.24,13.41h-2.34l-6.14-13.22h-5.66l-6.14,13.22h-2.11l6.21-13.41h-5.79v-1.92h9.66v-2.98h2.11v2.98h9.66v1.92h-5.7Z"/>
    <path class="cls-5" d="M1267.84,1333.06c0-2.11.21-4,.64-5.66.41-1.6.99-2.96,1.76-4.1.77-1.11,1.68-1.94,2.75-2.5,1.04-.58,2.18-.86,3.41-.86s2.36.29,3.41.86c1.09.55,2.02,1.39,2.78,2.5.77,1.13,1.35,2.5,1.76,4.1.02.06.03.12.03.16h6.18v-8.16h2.11v27.84h-2.11v-8.16h-6.3c-.41,1.45-.96,2.7-1.66,3.74-.77,1.11-1.7,1.95-2.78,2.53-1.04.55-2.18.83-3.41.83s-2.36-.28-3.41-.83c-1.07-.58-1.98-1.42-2.75-2.53-.77-1.11-1.36-2.47-1.76-4.1-.43-1.66-.64-3.55-.64-5.66ZM1271.84,1324.42c-1.39,1.98-2.08,4.87-2.08,8.66s.69,6.67,2.08,8.66c1.15,1.66,2.67,2.5,4.56,2.5s3.42-.83,4.59-2.5c1.37-1.98,2.05-4.87,2.05-8.66s-.68-6.67-2.05-8.66c-1.17-1.69-2.7-2.53-4.59-2.53s-3.41.84-4.56,2.53ZM1284.77,1329.47c.15,1.13.22,2.33.22,3.58,0,1.47-.11,2.83-.32,4.06h5.89v-7.65h-5.79Z"/>
    <path class="cls-5" d="M1297.15,1334.24v-1.92h27.42v1.92h-27.42ZM1322.56,1325.89h-21.28v2.14h21.28v1.95h-22.69c-.19,0-.36-.07-.5-.21-.14-.14-.21-.3-.21-.5v-5.31h21.28v-1.86h-21.28v-1.95h23.39v5.73ZM1299.39,1336.93h22.21c.19,0,.36.07.5.21s.21.3.21.5v9.57h-22.21c-.19,0-.36-.06-.5-.19s-.21-.3-.21-.51v-9.57ZM1320.19,1345.28v-6.4h-18.69v6.4h18.69Z"/>
    <path class="cls-5" d="M1331.65,1345.28c-.9-.58-1.65-1.42-2.27-2.53-1.28-2.3-1.92-5.54-1.92-9.7s.64-7.38,1.92-9.66c.62-1.13,1.38-1.98,2.27-2.56.88-.58,1.85-.86,2.91-.86s2.04.29,2.91.86c.88.58,1.63,1.43,2.27,2.56,1.17,2.09,1.8,4.99,1.89,8.7h4.29v-12.48h2.11v27.17h-2.11v-12.77h-4.29c-.09,3.71-.71,6.62-1.89,8.74-.64,1.11-1.4,1.95-2.27,2.53-.88.6-1.85.9-2.91.9s-2.04-.3-2.91-.9ZM1338.32,1324.9c-.93-2-2.19-3.01-3.78-3.01s-2.84,1-3.76,3.01c-.92,2.01-1.38,4.73-1.38,8.18s.46,6.17,1.38,8.16c.92,2,2.17,2.99,3.76,2.99s2.85-1,3.78-2.99c.93-1.99,1.39-4.71,1.39-8.16s-.46-6.17-1.39-8.18ZM1350.85,1347.23v-27.84h2.11v27.84h-2.11Z"/>
    <path class="cls-5" d="M1355.78,1346.02v-2.11h12.03v2.11h-12.03Z"/>
    <path class="cls-5" d="M1369.69,1337.92v-1.92h27.42v1.92h-12.64v9.28h-2.11v-9.28h-12.67ZM1374.69,1321.34c1.83-1.07,4.74-1.6,8.72-1.6s6.88.53,8.72,1.6c1,.6,1.75,1.37,2.24,2.3.47.9.7,1.96.7,3.18s-.24,2.29-.7,3.18c-.49.94-1.24,1.71-2.24,2.3-1.83,1.07-4.74,1.6-8.72,1.6s-6.89-.53-8.72-1.6c-1-.6-1.75-1.36-2.24-2.3-.45-.9-.67-1.96-.67-3.18s.22-2.29.67-3.18c.49-.94,1.24-1.71,2.24-2.3ZM1391.13,1323.01c-1.51-.9-4.09-1.34-7.71-1.34s-6.21.45-7.74,1.34c-1.32.79-1.98,2.06-1.98,3.82s.66,3.03,1.98,3.82c1.54.9,4.12,1.34,7.74,1.34s6.2-.45,7.71-1.34c1.32-.79,1.98-2.06,1.98-3.82s-.66-3.04-1.98-3.82Z"/>
    <path class="cls-5" d="M1404.61,1344.29h14.72v1.92h-16.13c-.19,0-.36-.07-.5-.21s-.21-.3-.21-.5v-14.02h14.08v-9.34h-14.08v-1.95h16.19v13.25h-14.08v10.85ZM1424.48,1347.23v-27.84h2.11v27.84h-2.11Z"/>
    <path class="cls-5" d="M1431.07,1334.24v-1.92h27.42v1.92h-27.42ZM1456.48,1325.89h-21.28v2.14h21.28v1.95h-22.69c-.19,0-.36-.07-.5-.21-.14-.14-.21-.3-.21-.5v-5.31h21.28v-1.86h-21.28v-1.95h23.39v5.73ZM1433.85,1347.2c-.19,0-.35-.06-.48-.19s-.19-.3-.19-.51v-5.92h20.8v-2.14h-20.8v-1.95h22.91v6.05h-20.8v2.75h21.06v1.92h-22.5Z"/>
    <path class="cls-5" d="M1460.41,1346.02v-2.11h12.03v2.11h-12.03Z"/>
    <path class="cls-5" d="M1491.07,1320.19c.19,0,.36.07.5.21.14.14.21.3.21.5v13.18h-14.94c-.19,0-.36-.06-.5-.19s-.21-.3-.21-.51v-13.18h14.94ZM1477.41,1338.4v-1.92h23.1v1.92h-6.24l5.98,8.83h-2.56l-5.76-8.54h-5.95l-5.76,8.54h-2.56l5.98-8.83h-6.24ZM1489.66,1332.16v-10.02h-11.42v10.02h11.42ZM1500.41,1319.39v6.72h4.67v1.92h-4.67v6.69h-2.11v-15.33h2.11Z"/>
    <path class="cls-5" d="M1508.45,1333.06c0-2.11.21-4,.64-5.66.41-1.6.99-2.96,1.76-4.1.77-1.11,1.68-1.94,2.75-2.5,1.04-.58,2.18-.86,3.41-.86s2.36.29,3.41.86c1.09.55,2.02,1.39,2.78,2.5.77,1.13,1.35,2.5,1.76,4.1.43,1.66.64,3.55.64,5.66s-.21,4-.64,5.66c-.41,1.6-.99,2.97-1.76,4.1-.77,1.11-1.7,1.95-2.78,2.53-1.04.55-2.18.83-3.41.83s-2.36-.28-3.41-.83c-1.07-.58-1.98-1.42-2.75-2.53-.77-1.11-1.36-2.47-1.76-4.1-.43-1.66-.64-3.55-.64-5.66ZM1512.45,1324.42c-1.39,1.98-2.08,4.87-2.08,8.66s.69,6.67,2.08,8.66c1.15,1.66,2.67,2.5,4.56,2.5s3.42-.83,4.59-2.5c1.37-1.98,2.05-4.87,2.05-8.66s-.68-6.67-2.05-8.66c-1.17-1.69-2.7-2.53-4.59-2.53s-3.41.84-4.56,2.53ZM1531.17,1347.23v-27.84h2.11v27.84h-2.11Z"/>
    <path class="cls-5" d="M1555.93,1320.83v1.95h-17.79v-1.95h7.84v-3.1h2.11v3.1h7.84ZM1554.75,1330.88c.41,1.3.61,2.77.61,4.42s-.2,3.11-.61,4.42c-.41,1.26-1,2.33-1.79,3.2-.75.85-1.64,1.49-2.69,1.92-1,.4-2.09.61-3.25.61s-2.24-.2-3.22-.61c-1.05-.43-1.94-1.07-2.69-1.92-.79-.88-1.39-1.94-1.79-3.2-.43-1.3-.64-2.77-.64-4.42s.21-3.12.64-4.42c.41-1.26,1-2.33,1.79-3.2.75-.85,1.64-1.49,2.69-1.92.98-.41,2.06-.61,3.23-.61s2.25.2,3.23.61c1.04.43,1.94,1.07,2.69,1.92.79.88,1.39,1.94,1.79,3.2ZM1542.33,1341.34c1.13,1.45,2.7,2.18,4.7,2.18s3.57-.73,4.7-2.18,1.7-3.47,1.7-6.05-.57-4.6-1.7-6.05c-1.13-1.45-2.7-2.18-4.7-2.18s-3.57.73-4.7,2.18c-1.13,1.45-1.7,3.47-1.7,6.05s.56,4.6,1.7,6.05ZM1563.13,1330.94h4.67v1.92h-4.67v14.46h-2.11v-27.84h2.11v11.46Z"/>
    <path class="cls-5" d="M1574.27,1344.29h14.72v1.92h-16.13c-.19,0-.36-.07-.5-.21s-.21-.3-.21-.5v-14.02h14.08v-9.34h-14.08v-1.95h16.19v13.25h-14.08v10.85ZM1594.14,1337.92v-18.53h2.11v27.84h-2.11v-7.36h-6.72v-1.95h6.72Z"/>
    <path class="cls-5" d="M1600.03,1346.02v-2.11h12.03v2.11h-12.03Z"/>
    <path class="cls-5" d="M1618.72,1344.29h12.7v1.92h-14.11c-.19,0-.36-.07-.5-.21-.14-.14-.21-.3-.21-.5v-25.28h2.11v24.06ZM1633.69,1319.62h2.11v10.91h3.94v-11.14h2.11v27.84h-2.11v-14.75h-3.94v14.3h-2.11v-27.17Z"/>
    <path class="cls-5" d="M1650.56,1344.29h14.72v1.92h-16.13c-.19,0-.36-.07-.5-.21s-.21-.3-.21-.5v-14.02h14.08v-9.34h-14.08v-1.95h16.19v13.25h-14.08v10.85ZM1670.43,1328.96v-9.57h2.11v27.84h-2.11v-6.75h-5.31v-1.95h5.31v-7.65h-5.31v-1.92h5.31Z"/>
    <path class="cls-5" d="M1699.32,1320.9c2.05.83,3.07,2.2,3.07,4.11s-1.02,3.28-3.07,4.11c-1.64.66-4.16,1.02-7.55,1.09v3.04h12.67v1.95h-27.42v-1.95h12.64v-3.04c-3.37-.06-5.88-.43-7.52-1.09-2.03-.83-3.04-2.2-3.04-4.11s1.01-3.28,3.04-4.11c1.81-.72,4.68-1.09,8.61-1.09s6.78.36,8.58,1.09ZM1680,1347.23c-.19,0-.36-.07-.5-.21s-.21-.3-.21-.5v-9.57h2.11v8.32h20.74v1.95h-22.14ZM1698.59,1327.33c.75-.3,1.24-.64,1.49-1.02.25-.38.37-.82.37-1.3s-.12-.91-.37-1.3c-.25-.38-.74-.73-1.49-1.02-1.56-.64-4.18-.96-7.86-.96s-6.3.32-7.86.96c-.75.3-1.24.64-1.49,1.02-.25.38-.37.82-.37,1.3s.12.91.37,1.3.74.73,1.49,1.02c1.56.62,4.18.93,7.86.93s6.3-.31,7.86-.93Z"/>
    <path class="cls-5" d="M1706.37,1346.02v-2.11h12.03v2.11h-12.03Z"/>
    <path class="cls-5" d="M1734.33,1322.24l4.67,12.99-2.24.03-4.42-12.29c-.15-.45-.46-.67-.93-.67h-4.32l-4.42,12.96h-2.02l4.48-13.15h-3.58v-1.92h7.2v-2.46h2.11v2.46h7.17v1.92h-3.74s.03.09.03.13ZM1724.54,1347.33c-.19,0-.36-.07-.5-.21-.14-.14-.21-.3-.21-.5v-9.57h2.11v8.32h20.74v1.95h-22.14ZM1744.09,1326.18v-6.69h2.11v20.77h-2.11v-12.13h-5.66v-1.95h5.66Z"/>
    <path class="cls-5" d="M1764.06,1322.02l3.87,24.19h-2.14l-3.84-23.87s-.01-.03-.03-.03h-5.86l-3.84,23.9h-1.95l4.19-26.02h7.49c.51,0,.97.18,1.38.53.41.35.65.78.74,1.3ZM1775.16,1330.85h4.67v1.95h-4.67v14.43h-2.11v-27.84h2.11v11.46Z"/>
  </g>
  <g>
    <path class="cls-1" d="M249.73,1349.89l-1.6,7.2h5.86l-.42,1.95h-5.86l-2.11,9.54h5.82l-.42,1.95h-5.86l-1.6,7.2h-2.59l1.6-7.2h-8.42l-1.6,7.2h-2.59l1.6-7.2h-5.86l.45-1.95h5.82l2.14-9.54h-5.86l.42-1.92h5.86l1.6-7.23h2.59l-1.6,7.23h8.42l1.63-7.23h2.56ZM243.01,1368.58l2.11-9.54h-8.45l-2.11,9.54h8.45Z"/>
    <path class="cls-1" d="M274.65,1350.69c.19,0,.36.07.5.21.14.14.21.3.21.5v25.31h-15.68c-.19,0-.36-.07-.5-.21-.14-.14-.21-.3-.21-.5v-25.31h15.68ZM273.25,1374.79v-22.14h-12.16v22.14h12.16ZM281.15,1377.73v-27.84h2.11v27.84h-2.11Z"/>
    <path class="cls-1" d="M302.53,1364.29v10.5h12.64v1.92h-27.42v-1.92h12.67v-10.5h2.11ZM309.09,1351.68l4.61,15.81h-2.21l-4.29-14.66h-11.68l-4.29,14.66h-2.02l4.9-16.77h13.7c.3,0,.57.09.8.26.23.17.39.41.48.7Z"/>
    <path class="cls-1" d="M322.97,1374.79h14.91v1.92h-16.32c-.19,0-.36-.07-.5-.21-.14-.14-.21-.3-.21-.5v-25.28h2.11v24.06ZM343.04,1356.29v-6.4h2.11v27.84h-2.11v-9.92h-5.7v-1.95h5.7v-7.65h-5.7v-1.92h5.7Z"/>
    <path class="cls-1" d="M349.79,1364.74v-1.92h27.42v1.92h-27.42ZM375.2,1356.39h-21.28v2.14h21.28v1.95h-22.69c-.19,0-.36-.07-.5-.21-.14-.14-.21-.3-.21-.5v-5.31h21.28v-1.86h-21.28v-1.95h23.39v5.73ZM352.57,1377.7c-.19,0-.35-.06-.48-.19s-.19-.3-.19-.51v-5.92h20.8v-2.14h-20.8v-1.95h22.91v6.05h-20.8v2.75h21.06v1.92h-22.5Z"/>
    <path class="cls-1" d="M379.13,1376.52v-2.11h12.03v2.11h-12.03Z"/>
    <path class="cls-1" d="M395.84,1377.73c-.19,0-.35-.07-.48-.21s-.19-.3-.19-.5v-5.92h20.8v-2.18h-20.8v-1.92h10.53v-2.94h-12.64v-1.92h27.42v1.92h-12.67v2.94h10.27v6.02h-20.8v2.75h21.06v1.95h-22.5ZM406.78,1350.34c3.92,0,6.78.35,8.58,1.06,2.05.79,3.07,2.12,3.07,3.98s-1.02,3.21-3.07,4.02c-1.79.7-4.65,1.06-8.58,1.06s-6.78-.35-8.58-1.06c-2.05-.81-3.07-2.15-3.07-4.02s1.02-3.19,3.07-3.98c1.79-.7,4.65-1.06,8.58-1.06ZM416.48,1355.4c0-.98-.61-1.72-1.82-2.21-1.58-.62-4.21-.93-7.89-.93s-6.3.31-7.86.93c-.75.3-1.24.63-1.49.99-.25.36-.37.77-.37,1.22,0,.98.62,1.72,1.86,2.21,1.56.6,4.18.9,7.86.9s6.31-.3,7.89-.9c1.22-.49,1.82-1.23,1.82-2.21Z"/>
    <path class="cls-1" d="M428.13,1362.63h14.72v1.95h-16.13c-.19,0-.36-.07-.5-.21s-.21-.3-.21-.5v-7.55h14.08v-3.68h-14.08v-1.95h16.19v7.58h-14.08v4.35ZM427.9,1377.73c-.19,0-.36-.06-.5-.19-.14-.13-.21-.29-.21-.48v-5.95h20.8v-2.14h-20.8v-1.92h22.91v6.02h-20.8v2.75h21.09v1.92h-22.5ZM448,1365.22v-15.33h2.11v15.33h-2.11Z"/>
    <path class="cls-1" d="M453.76,1376.52v-2.11h12.03v2.11h-12.03Z"/>
    <path class="cls-1" d="M484.73,1350.72c.19,0,.35.07.48.21s.19.3.19.5v25.28h-2.11v-24.03h-14.4v-1.95h15.84ZM491.07,1377.73v-27.84h2.11v27.84h-2.11Z"/>
    <path class="cls-1" d="M505.5,1369.7c-1.07-.26-1.95-.68-2.66-1.28-1.34-1.11-2.02-2.85-2.02-5.22s.67-4.12,2.02-5.25c.7-.58,1.59-1,2.66-1.28,1-.26,2.2-.38,3.6-.38s2.59.13,3.57.38c1.07.28,1.95.7,2.66,1.28,1.37,1.13,2.05,2.88,2.05,5.25s-.68,4.11-2.05,5.22c-.7.6-1.59,1.02-2.66,1.28-.68.17-1.46.29-2.34.35v4.77h9.06v1.95h-20.22v-1.95h9.06v-4.74c-1.02-.04-1.93-.17-2.72-.38ZM510.14,1348.9v3.52h8.13v1.92h-18.37v-1.92h8.13v-3.52h2.11ZM512.29,1358.56c-.85-.21-1.92-.32-3.2-.32s-2.35.11-3.2.32c-.85.21-1.5.55-1.95,1.01-.45.46-.76.97-.93,1.54-.17.57-.26,1.26-.26,2.08s.08,1.51.26,2.08.48,1.08.93,1.54c.45.46,1.1.8,1.95,1.02.85.22,1.92.34,3.2.34s2.35-.11,3.2-.34c.85-.22,1.5-.56,1.95-1.02s.76-.97.93-1.54.26-1.26.26-2.08-.08-1.51-.26-2.08c-.17-.56-.48-1.08-.93-1.54-.45-.46-1.1-.79-1.95-1.01ZM523.84,1377.8v-27.84h2.11v27.84h-2.11Z"/>
    <path class="cls-1" d="M534.68,1374.79h14.91v1.92h-16.32c-.19,0-.36-.07-.5-.21-.14-.14-.21-.3-.21-.5v-25.28h15.46v1.95h-13.34v22.11ZM556.86,1361.35h4.67v1.95h-4.67v14.43h-2.11v-27.84h2.11v11.46Z"/>
  </g>
  <g>
    <path class="cls-7" d="M1771.94,1057.85c-.38,0-.75-.14-1.03-.41-29.41-27.86-30.55-47.63-28.61-56.94,3-14.4,13.58-19.53,22.48-19.53,8.24,0,17.22,4.46,20.16,13.04,3.48-3.78,8.49-5.9,14.2-5.9,6.98,0,13.72,3.16,18.03,8.46,3.09,3.81,6.34,10.44,4.27,20.41-1.94,9.31-10.88,26.98-48.97,40.77-.17.06-.34.09-.51.09Z"/>
    <path class="cls-10" d="M1764.78,982.47c9.17,0,18.06,5.65,19.44,14.95,3.32-5.32,9.01-7.81,14.91-7.81,11.77,0,24.4,9.91,20.82,27.07-2.69,12.91-15.99,28.07-48.02,39.67-24.73-23.43-30.86-42.63-28.17-55.55,2.68-12.86,11.98-18.34,21.01-18.34M1764.78,979.47h0c-9.49,0-20.76,5.44-23.95,20.72-2,9.61-.89,29.98,29.05,58.34.57.54,1.31.82,2.06.82.34,0,.69-.06,1.02-.18,38.78-14.04,47.93-32.26,49.93-41.88,2.2-10.56-1.27-17.61-4.57-21.67-4.59-5.65-11.77-9.02-19.19-9.02-5.3,0-10.05,1.71-13.67,4.81-3.51-7.17-11.43-11.95-20.68-11.95h0Z"/>
  </g>
  <g>
    <path class="cls-10" d="M1806.49,1063.03c-.55,0-1.06-.31-1.33-.8-10.93-20.62-7.86-31.71-5.06-36.49,2.82-4.81,7.09-7.45,12.02-7.45,4.06,0,8.03,1.84,10.61,4.93,1.52,1.82,2.42,3.91,2.65,6.08,1.34-.58,2.81-.88,4.33-.88,4.67,0,9.24,2.73,11.67,6.96,2.49,4.35,2.29,9.41-.55,14.25-2.8,4.78-10.99,12.87-34.32,13.39h-.03Z"/>
    <path class="cls-7" d="M1812.13,1019.79c6.65,0,12.85,5.64,11.67,12.23,1.76-1.44,3.83-2.09,5.92-2.09,7.72,0,15.78,8.8,9.82,18.95-3.79,6.47-13.7,12.22-33.06,12.65-9.07-17.1-8.88-28.56-5.09-35.03,2.81-4.79,6.85-6.71,10.73-6.71M1812.13,1016.79c-5.41,0-10.26,2.99-13.32,8.19-2.96,5.05-6.24,16.69,5.03,37.95.52.98,1.54,1.59,2.65,1.59.02,0,.04,0,.07,0,24.06-.54,32.62-9.08,35.58-14.13,3.08-5.25,3.28-11,.56-15.76-2.68-4.68-7.77-7.71-12.97-7.71-1.09,0-2.15.13-3.17.4-.47-1.8-1.37-3.52-2.66-5.06-2.87-3.43-7.26-5.47-11.76-5.47h0Z"/>
  </g>
</svg>